{
    "asset" : {
        "generator" : "Khronos glTF Blender I/O v1.8.19",
        "version" : "2.0"
    },
    "scene" : 0,
    "scenes" : [
        {
            "name" : "Scene",
            "nodes" : [
                0
            ]
        }
    ],
    "nodes" : [
        {
            "mesh" : 0,
            "name" : "\u6995\u681110"
        }
    ],
    "materials" : [
        {
            "doubleSided" : true,
            "name" : "AM113_062_Tilia_Bark",
            "pbrMetallicRoughness" : {
                "baseColorTexture" : {
                    "index" : 0
                },
                "metallicFactor" : 0,
                "roughnessFactor" : 0.8149605989456177
            }
        },
        {
            "alphaCutoff" : 0.5,
            "alphaMode" : "MASK",
            "doubleSided" : true,
            "name" : "AM113_062_Tilia",
            "pbrMetallicRoughness" : {
                "baseColorTexture" : {
                    "index" : 1
                },
                "metallicFactor" : 0,
                "roughnessFactor" : 0.8543307185173035
            }
        }
    ],
    "meshes" : [
        {
            "name" : "AM113_062_Tilia",
            "primitives" : [
                {
                    "attributes" : {
                        "POSITION" : 0,
                        "NORMAL" : 1,
                        "TEXCOORD_0" : 2
                    },
                    "indices" : 3,
                    "material" : 0
                },
                {
                    "attributes" : {
                        "POSITION" : 4,
                        "NORMAL" : 5,
                        "TEXCOORD_0" : 6
                    },
                    "indices" : 7,
                    "material" : 1
                }
            ]
        }
    ],
    "textures" : [
        {
            "sampler" : 0,
            "source" : 0
        },
        {
            "sampler" : 0,
            "source" : 1
        }
    ],
    "images" : [
        {
            "bufferView" : 4,
            "mimeType" : "image/jpeg",
            "name" : "Image_0"
        },
        {
            "bufferView" : 9,
            "mimeType" : "image/png",
            "name" : "Image_1"
        }
    ],
    "accessors" : [
        {
            "bufferView" : 0,
            "componentType" : 5126,
            "count" : 1010,
            "max" : [
                2.296257972717285,
                7.121251106262207,
                2.604051113128662
            ],
            "min" : [
                -2.5036799907684326,
                -0.018407000228762627,
                -2.581923007965088
            ],
            "type" : "VEC3"
        },
        {
            "bufferView" : 1,
            "componentType" : 5126,
            "count" : 1010,
            "type" : "VEC3"
        },
        {
            "bufferView" : 2,
            "componentType" : 5126,
            "count" : 1010,
            "type" : "VEC2"
        },
        {
            "bufferView" : 3,
            "componentType" : 5123,
            "count" : 2364,
            "type" : "SCALAR"
        },
        {
            "bufferView" : 5,
            "componentType" : 5126,
            "count" : 4018,
            "max" : [
                3.496980905532837,
                9.390518188476562,
                4.279544830322266
            ],
            "min" : [
                -4.492187976837158,
                1.877616047859192,
                -4.279543876647949
            ],
            "type" : "VEC3"
        },
        {
            "bufferView" : 6,
            "componentType" : 5126,
            "count" : 4018,
            "type" : "VEC3"
        },
        {
            "bufferView" : 7,
            "componentType" : 5126,
            "count" : 4018,
            "type" : "VEC2"
        },
        {
            "bufferView" : 8,
            "componentType" : 5123,
            "count" : 11562,
            "type" : "SCALAR"
        }
    ],
    "bufferViews" : [
        {
            "buffer" : 0,
            "byteLength" : 12120,
            "byteOffset" : 0
        },
        {
            "buffer" : 0,
            "byteLength" : 12120,
            "byteOffset" : 12120
        },
        {
            "buffer" : 0,
            "byteLength" : 8080,
            "byteOffset" : 24240
        },
        {
            "buffer" : 0,
            "byteLength" : 4728,
            "byteOffset" : 32320
        },
        {
            "buffer" : 0,
            "byteLength" : 106129,
            "byteOffset" : 37048
        },
        {
            "buffer" : 0,
            "byteLength" : 48216,
            "byteOffset" : 143180
        },
        {
            "buffer" : 0,
            "byteLength" : 48216,
            "byteOffset" : 191396
        },
        {
            "buffer" : 0,
            "byteLength" : 32144,
            "byteOffset" : 239612
        },
        {
            "buffer" : 0,
            "byteLength" : 23124,
            "byteOffset" : 271756
        },
        {
            "buffer" : 0,
            "byteLength" : 418973,
            "byteOffset" : 294880
        }
    ],
    "samplers" : [
        {
            "magFilter" : 9729,
            "minFilter" : 9987
        }
    ],
    "buffers" : [
        {
            "byteLength" : 713856,
            "uri" : "data:application/octet-stream;base64,"
        }
    ]
}
